<svg xmlns="http://www.w3.org/2000/svg" version="1.1" xmlns:xlink="http://www.w3.org/1999/xlink" width="8.06" height="9.24"><svg id="SvgjsSvg1019" data-name="Livello 2" xmlns="http://www.w3.org/2000/svg" viewBox="0 0 8.06 9.24">
  <defs>
    <style>
      .cls-1 {
        fill: #ef0017;
      }

      .cls-2 {
        fill: #010200;
      }

      .cls-3 {
        fill: #77370b;
      }

      .cls-4 {
        fill: #1d1d1b;
        stroke: #d9d9d9;
        stroke-miterlimit: 10;
        stroke-width: .1px;
      }

      .cls-5 {
        fill: #d9d9d9;
      }
    </style>
  </defs>
  <g id="SvgjsG1018" data-name="Livello 1">
    <g>
      <path class="cls-2" d="M8.06,3.21c0-1.77-1.8-3.21-4.03-3.21S0,1.44,0,3.21v6.03h8.06V3.21Z"></path>
      <g>
        <line class="cls-4" x1="7.31" y1="9.24" x2="7.31" y2="4.78"></line>
        <line class="cls-4" x1="6.22" y1="9.24" x2="6.22" y2="4.78"></line>
        <line class="cls-4" x1="5.12" y1="9.24" x2="5.12" y2="4.78"></line>
        <line class="cls-4" x1="4.02" y1="9.24" x2="4.02" y2="4.78"></line>
        <line class="cls-4" x1="2.93" y1="9.24" x2="2.93" y2="4.78"></line>
        <line class="cls-4" x1="1.83" y1="9.24" x2="1.83" y2="4.78"></line>
        <line class="cls-4" x1=".74" y1="9.24" x2=".74" y2="4.78"></line>
      </g>
      <circle class="cls-3" cx="4.03" cy="3.98" r="3.98"></circle>
      <g>
        <rect x="5.57" y="2.46" width=".17" height="1.38" transform="translate(.3 6.8) rotate(-63.38)"></rect>
        <rect x="4.97" y="3.07" width="1.38" height=".17" transform="translate(-.81 2.87) rotate(-26.63)"></rect>
      </g>
      <g>
        <rect x="2.53" y="2.43" width=".17" height="1.38" transform="translate(-1.35 4.06) rotate(-63.38)"></rect>
        <rect x="1.92" y="3.04" width="1.38" height=".17" transform="translate(-1.12 1.5) rotate(-26.63)"></rect>
      </g>
      <path d="M8.06,3.98s0-3.98-4.03-3.98C1.8,0,0,1.78,0,3.98c0,0,4.12.02,4.12-3.3,0,0,.01,3.3,3.95,3.3Z"></path>
      <circle class="cls-1" cx="1.63" cy="4.66" r=".77"></circle>
      <circle class="cls-1" cx="6.43" cy="4.66" r=".77"></circle>
      <path d="M4.08,5.05c-.3,0-.58-.28-.59-.3-.03-.03-.03-.09,0-.12.03-.03.09-.03.12,0h0s.24.24.47.24c.24,0,.47-.24.47-.24.03-.03.09-.04.12,0,.03.03.04.09,0,.12-.01.01-.28.3-.6.3Z"></path>
      <path d="M2.82,6.15h2.51s-.35.74-1.26.74-1.26-.74-1.26-.74Z"></path>
      <path class="cls-5" d="M7.88,3.51c-.96,0-1.73-.28-2.28-.83C4.6,1.67,4.66.06,4.66.04h.09s-.06,1.6.92,2.58c.57.57,1.37.84,2.39.8v.09c-.06,0-.12,0-.18,0Z"></path>
      <path class="cls-5" d="M.11,3.39s-.11,0-.11,0v-.08s1.62.06,2.6-.92c.57-.56.83-1.34.8-2.35h.09c.04,1.02-.24,1.83-.83,2.41C1.77,3.34.42,3.39.11,3.39Z"></path>
    </g>
  </g>
</svg><style>@media (prefers-color-scheme: light) { :root { filter: contrast(1) brightness(0.9); } }
@media (prefers-color-scheme: dark) { :root { filter: none; } }
</style></svg>